<svg id="Layer_1" data-name="Layer 1" xmlns="http://www.w3.org/2000/svg" viewBox="0 0 729.17 133.44"><defs><style>.cls-1{fill:#fff;}.cls-2{fill:#00aae7;}.cls-3{fill:#82c341;}</style></defs><title>HCS-Logo-for web18</title><path class="cls-1" d="M47.19,61h5.1V84.29H84.1V61h5.1v53.56H84.1v-26H52.29v26h-5.1Z" transform="translate(-43.33 -26.25)"/><path class="cls-1" d="M100,96.51c.08,6.9,3.67,15.23,12.75,15.23,6.9,0,10.65-4.05,12.15-9.9h4.73c-2,8.78-7.13,13.88-16.88,13.88-12.3,0-17.48-9.45-17.48-20.48,0-10.2,5.17-20.48,17.48-20.48s17.4,10.88,17,21.76Zm25.06-4c-.23-7.13-4.65-13.8-12.3-13.8s-12,6.75-12.75,13.8Z" transform="translate(-43.33 -26.25)"/><path class="cls-1" d="M133.82,87.74c.45-9.08,6.83-13,15.68-13,6.83,0,14.25,2.1,14.25,12.45v20.55a2.52,2.52,0,0,0,2.78,2.85,4.39,4.39,0,0,0,1.5-.3v4a13,13,0,0,1-3.08.3c-4.8,0-5.55-2.7-5.55-6.75h-.15c-3.3,5-6.68,7.88-14.1,7.88-7.13,0-13-3.53-13-11.33,0-10.88,10.58-11.25,20.78-12.45,3.9-.45,6.08-1,6.08-5.25,0-6.37-4.58-7.95-10.13-7.95-5.85,0-10.2,2.7-10.35,9ZM159,93.44h-.15c-.6,1.12-2.7,1.5-4,1.73-8,1.43-18,1.35-18,8.93,0,4.73,4.2,7.65,8.63,7.65,7.2,0,13.58-4.57,13.5-12.15Z" transform="translate(-43.33 -26.25)"/><path class="cls-1" d="M171.4,61h4.73v53.56H171.4Z" transform="translate(-43.33 -26.25)"/><path class="cls-1" d="M190.83,75.89h7.88v4h-7.88V106c0,3.08.45,4.88,3.83,5.1a36.4,36.4,0,0,0,4.05-.22v4.05c-1.43,0-2.78.15-4.2.15-6.3,0-8.48-2.1-8.4-8.7V79.86h-6.75v-4h6.75V64.26h4.73Z" transform="translate(-43.33 -26.25)"/><path class="cls-1" d="M203.58,61h4.73V82.56h.15c1.73-4.65,6.9-7.8,12.38-7.8,10.88,0,14.18,5.7,14.18,14.93v24.9h-4.73V90.44c0-6.67-2.17-11.7-9.83-11.7-7.5,0-12,5.7-12.15,13.28v22.58h-4.73Z" transform="translate(-43.33 -26.25)"/><path class="cls-1" d="M269.36,88c-1.27-5.78-4.8-9.3-11-9.3-9.08,0-13.58,8.25-13.58,16.5s4.5,16.5,13.58,16.5c5.85,0,10.65-4.57,11.25-11h4.73c-1.28,9.3-7.35,15-16,15-11.85,0-18.3-9.38-18.3-20.48s6.45-20.48,18.3-20.48c8.25,0,14.63,4.43,15.68,13.28Z" transform="translate(-43.33 -26.25)"/><path class="cls-1" d="M278.66,87.74c.45-9.08,6.83-13,15.68-13,6.83,0,14.25,2.1,14.25,12.45v20.55a2.52,2.52,0,0,0,2.78,2.85,4.39,4.39,0,0,0,1.5-.3v4a13,13,0,0,1-3.08.3c-4.8,0-5.55-2.7-5.55-6.75h-.15c-3.3,5-6.67,7.88-14.1,7.88-7.13,0-13-3.53-13-11.33,0-10.88,10.58-11.25,20.78-12.45,3.9-.45,6.08-1,6.08-5.25,0-6.37-4.58-7.95-10.13-7.95-5.85,0-10.2,2.7-10.35,9Zm25.21,5.7h-.15c-.6,1.12-2.7,1.5-4,1.73-8,1.43-18,1.35-18,8.93,0,4.73,4.2,7.65,8.63,7.65,7.2,0,13.58-4.57,13.5-12.15Z" transform="translate(-43.33 -26.25)"/><path class="cls-1" d="M316.16,75.89h4.35V85h.15a14.3,14.3,0,0,1,14.63-9.6v4.73c-8.55-.45-14.4,5.85-14.4,13.88v20.63h-4.73Z" transform="translate(-43.33 -26.25)"/><path class="cls-1" d="M339.35,96.51c.08,6.9,3.67,15.23,12.75,15.23,6.9,0,10.65-4.05,12.15-9.9H369c-2,8.78-7.13,13.88-16.88,13.88-12.3,0-17.48-9.45-17.48-20.48,0-10.2,5.17-20.48,17.48-20.48s17.4,10.88,17,21.76Zm25.06-4c-.23-7.13-4.65-13.8-12.3-13.8s-12,6.75-12.75,13.8Z" transform="translate(-43.33 -26.25)"/><path class="cls-1" d="M376.93,97c-.22,11,7.73,14.4,17.48,14.4,5.63,0,14.18-3.08,14.18-10.88,0-6.08-6.08-8.48-11-9.68l-11.93-2.92c-6.3-1.58-12.08-4.58-12.08-12.9,0-5.25,3.38-15.08,18.45-15.08,10.58,0,19.88,5.7,19.81,16.65h-5.1c-.3-8.18-7.05-12.3-14.63-12.3-7,0-13.43,2.7-13.43,10.65,0,5,3.75,7.13,8.1,8.18l13.05,3.22c7.57,2,13.88,5.33,13.88,14.1,0,3.68-1.5,15.3-20.48,15.3-12.68,0-22-5.7-21.38-18.76Z" transform="translate(-43.33 -26.25)"/><path class="cls-1" d="M453.66,95.24c0,11.1-6.45,20.48-18.3,20.48s-18.3-9.38-18.3-20.48,6.45-20.48,18.3-20.48S453.66,84.14,453.66,95.24Zm-31.88,0c0,8.25,4.5,16.5,13.58,16.5s13.58-8.25,13.58-16.5-4.5-16.5-13.58-16.5S421.78,87,421.78,95.24Z" transform="translate(-43.33 -26.25)"/><path class="cls-1" d="M490.19,114.59h-4.35v-7h-.15a14.4,14.4,0,0,1-13.36,8.1c-9.75,0-13.58-5.7-13.58-14.7V75.89h4.73v25.2c.23,7,2.85,10.65,10.35,10.65,8.1,0,11.63-7.65,11.63-15.53V75.89h4.73Z" transform="translate(-43.33 -26.25)"/><path class="cls-1" d="M497.24,75.89h4.35V85h.15a14.3,14.3,0,0,1,14.63-9.6v4.73C507.81,79.64,502,85.94,502,94v20.63h-4.73Z" transform="translate(-43.33 -26.25)"/><path class="cls-1" d="M545,88c-1.27-5.78-4.8-9.3-11-9.3-9.08,0-13.58,8.25-13.58,16.5s4.5,16.5,13.58,16.5c5.85,0,10.65-4.57,11.25-11H550c-1.28,9.3-7.35,15-16,15-11.85,0-18.3-9.38-18.3-20.48s6.45-20.48,18.3-20.48c8.25,0,14.63,4.43,15.68,13.28Z" transform="translate(-43.33 -26.25)"/><path class="cls-1" d="M557.48,96.51c.08,6.9,3.67,15.23,12.75,15.23,6.9,0,10.65-4.05,12.15-9.9h4.73c-2,8.78-7.13,13.88-16.88,13.88-12.3,0-17.48-9.45-17.48-20.48,0-10.2,5.17-20.48,17.48-20.48s17.4,10.88,17,21.76Zm25.06-4c-.23-7.13-4.65-13.8-12.3-13.8s-12,6.75-12.75,13.8Z" transform="translate(-43.33 -26.25)"/><path class="cls-2" d="M739.69,116.84V85.76a19.53,19.53,0,0,0-19.47-19.47H704.4a8.4,8.4,0,0,0,1.9-1.76,22.06,22.06,0,1,0-27.74,1.76H662.46A19.53,19.53,0,0,0,643,85.76V135h18.37l4.15-34.27L671.14,135h40.32l5.64-34.27L721.25,135h18.45Z" transform="translate(-43.33 -26.25)"/><path class="cls-3" d="M758.41,67H746.13a15.91,15.91,0,1,0-23.62-6.73,5.84,5.84,0,0,0,3.58,3A22.33,22.33,0,0,1,743.54,85l0,31.74h23l6-35.65h0A14.09,14.09,0,0,0,758.41,67Z" transform="translate(-43.33 -26.25)"/><path class="cls-3" d="M639.14,85.32V85a22.33,22.33,0,0,1,17.43-21.76,5.84,5.84,0,0,0,3.58-3A15.9,15.9,0,1,0,636.54,67H624.27A14.09,14.09,0,0,0,610.18,81h0l6,35.65h22.91V85.76C639.14,85.61,639.14,85.46,639.14,85.32Z" transform="translate(-43.33 -26.25)"/><path class="cls-2" d="M62.82,156.11l-3.15-2.87a10.79,10.79,0,0,1-5.4,1.31c-6.89,0-10.95-5.15-10.95-11.57,0-6.61,4.05-11.76,10.95-11.76S65.23,136.37,65.23,143a12.24,12.24,0,0,1-2.9,8.2l2.78,2.53Zm-6.39-10.32L59,148.09A8.63,8.63,0,0,0,60.33,143c0-3.9-1.65-7.64-6-7.64s-6.05,3.74-6.05,7.64c0,3.71,1.65,7.45,6.05,7.45a3.61,3.61,0,0,0,2-.31l-2.09-1.9Z" transform="translate(-43.33 -26.25)"/><path class="cls-2" d="M82.81,154H78.6v-2.25h-.09a5.75,5.75,0,0,1-4.93,2.68c-4.71,0-5.89-2.65-5.89-6.64v-9.92h4.43V147c0,2.65.78,4,2.84,4,2.4,0,3.43-1.34,3.43-4.62v-8.45h4.43Z" transform="translate(-43.33 -26.25)"/><path class="cls-2" d="M85.59,142.85c.25-4.15,4-5.4,7.58-5.4,3.21,0,7.08.72,7.08,4.58v8.39a8.26,8.26,0,0,0,.56,3.59H96.32a6.59,6.59,0,0,1-.31-1.56,7.39,7.39,0,0,1-5.43,2c-3.06,0-5.49-1.53-5.49-4.83,0-3.65,2.74-4.52,5.49-4.9s5.24-.31,5.24-2.12-1.31-2.18-2.87-2.18-2.78.69-2.93,2.43Zm10.23,3.27c-.75.66-2.31.69-3.68.94s-2.62.75-2.62,2.37,1.28,2.06,2.71,2.06c3.46,0,3.59-2.74,3.59-3.71Z" transform="translate(-43.33 -26.25)"/><path class="cls-2" d="M103.4,131.75h4.43V154H103.4Z" transform="translate(-43.33 -26.25)"/><path class="cls-2" d="M115.47,135.4H111v-3.65h4.43ZM111,137.89h4.43V154H111Z" transform="translate(-43.33 -26.25)"/><path class="cls-2" d="M124.17,137.89h3.24v3h-3.24v8c0,1.5.37,1.87,1.87,1.87a6.82,6.82,0,0,0,1.37-.12V154a17,17,0,0,1-2.59.16c-2.71,0-5.08-.62-5.08-3.84v-9.51h-2.68v-3h2.68v-4.83h4.43Z" transform="translate(-43.33 -26.25)"/><path class="cls-2" d="M137.08,156c-1,2.59-2.49,3.65-5.55,3.65a26.43,26.43,0,0,1-2.71-.16v-3.65a23.49,23.49,0,0,0,2.59.16,2.09,2.09,0,0,0,1.53-3l-5.68-15.13H132l3.65,11h.06l3.52-11h4.58Z" transform="translate(-43.33 -26.25)"/><path class="cls-2" d="M158.56,135.87h-6.67v-4.12h18.24v4.12h-6.67V154h-4.9Z" transform="translate(-43.33 -26.25)"/><path class="cls-2" d="M171.63,142.85c.25-4.15,4-5.4,7.58-5.4,3.21,0,7.08.72,7.08,4.58v8.39a8.26,8.26,0,0,0,.56,3.59h-4.49a6.6,6.6,0,0,1-.31-1.56,7.39,7.39,0,0,1-5.43,2c-3.06,0-5.49-1.53-5.49-4.83,0-3.65,2.74-4.52,5.49-4.9s5.24-.31,5.24-2.12-1.31-2.18-2.87-2.18-2.78.69-2.93,2.43Zm10.23,3.27c-.75.66-2.31.69-3.68.94s-2.62.75-2.62,2.37,1.28,2.06,2.71,2.06c3.46,0,3.59-2.74,3.59-3.71Z" transform="translate(-43.33 -26.25)"/><path class="cls-2" d="M189.44,131.75h4.43V154h-4.43Z" transform="translate(-43.33 -26.25)"/><path class="cls-2" d="M200.6,147c.12,2.81,1.5,4.09,4,4.09a3.65,3.65,0,0,0,3.49-2.09H212c-1.25,3.8-3.9,5.43-7.55,5.43-5.08,0-8.23-3.49-8.23-8.48,0-4.83,3.34-8.51,8.23-8.51,5.49,0,8.14,4.62,7.83,9.57Zm7.2-2.81c-.41-2.25-1.37-3.43-3.52-3.43a3.49,3.49,0,0,0-3.68,3.43Z" transform="translate(-43.33 -26.25)"/><path class="cls-2" d="M214.45,137.89h4.21v2.25h.09a5.75,5.75,0,0,1,4.93-2.68c4.71,0,5.89,2.65,5.89,6.64V154h-4.43v-9.11c0-2.65-.78-4-2.84-4-2.4,0-3.43,1.34-3.43,4.62V154h-4.43Z" transform="translate(-43.33 -26.25)"/><path class="cls-2" d="M238.15,137.89h3.24v3h-3.24v8c0,1.5.37,1.87,1.87,1.87a6.82,6.82,0,0,0,1.37-.12V154a17,17,0,0,1-2.59.16c-2.71,0-5.08-.62-5.08-3.84v-9.51H231v-3h2.68v-4.83h4.43Z" transform="translate(-43.33 -26.25)"/><path class="cls-2" d="M243.29,149.21h4.9V154h-4.9Z" transform="translate(-43.33 -26.25)"/><path class="cls-2" d="M278.63,156.11l-3.15-2.87a10.79,10.79,0,0,1-5.4,1.31c-6.89,0-10.95-5.15-10.95-11.57,0-6.61,4.05-11.76,10.95-11.76S281,136.37,281,143a12.24,12.24,0,0,1-2.9,8.2l2.78,2.53Zm-6.39-10.32,2.53,2.31a8.63,8.63,0,0,0,1.37-5.11c0-3.9-1.65-7.64-6-7.64S264,139.08,264,143c0,3.71,1.65,7.45,6.05,7.45a3.61,3.61,0,0,0,2-.31l-2.09-1.9Z" transform="translate(-43.33 -26.25)"/><path class="cls-2" d="M298.62,154h-4.21v-2.25h-.09a5.75,5.75,0,0,1-4.93,2.68c-4.71,0-5.89-2.65-5.89-6.64v-9.92h4.43V147c0,2.65.78,4,2.84,4,2.4,0,3.43-1.34,3.43-4.62v-8.45h4.43Z" transform="translate(-43.33 -26.25)"/><path class="cls-2" d="M301.39,142.85c.25-4.15,4-5.4,7.58-5.4,3.21,0,7.08.72,7.08,4.58v8.39a8.26,8.26,0,0,0,.56,3.59h-4.49a6.6,6.6,0,0,1-.31-1.56,7.39,7.39,0,0,1-5.43,2c-3.06,0-5.49-1.53-5.49-4.83,0-3.65,2.74-4.52,5.49-4.9s5.24-.31,5.24-2.12-1.31-2.18-2.87-2.18-2.78.69-2.93,2.43Zm10.23,3.27c-.75.66-2.31.69-3.68.94s-2.62.75-2.62,2.37,1.28,2.06,2.71,2.06c3.46,0,3.59-2.74,3.59-3.71Z" transform="translate(-43.33 -26.25)"/><path class="cls-2" d="M319.2,131.75h4.43V154H319.2Z" transform="translate(-43.33 -26.25)"/><path class="cls-2" d="M331.27,135.4h-4.43v-3.65h4.43Zm-4.43,2.49h4.43V154h-4.43Z" transform="translate(-43.33 -26.25)"/><path class="cls-2" d="M340,137.89h3.24v3H340v8c0,1.5.37,1.87,1.87,1.87a6.82,6.82,0,0,0,1.37-.12V154a17,17,0,0,1-2.59.16c-2.71,0-5.08-.62-5.08-3.84v-9.51h-2.68v-3h2.68v-4.83H340Z" transform="translate(-43.33 -26.25)"/><path class="cls-2" d="M352.88,156c-1,2.59-2.49,3.65-5.55,3.65a26.43,26.43,0,0,1-2.71-.16v-3.65a23.49,23.49,0,0,0,2.59.16,2.09,2.09,0,0,0,1.53-3l-5.68-15.13h4.74l3.65,11h.06l3.52-11h4.58Z" transform="translate(-43.33 -26.25)"/><path class="cls-2" d="M384.28,139.23a4.81,4.81,0,0,0-4.86-3.9c-4.4,0-6.05,3.74-6.05,7.64,0,3.71,1.65,7.45,6.05,7.45,3,0,4.68-2.06,5.05-5h4.74c-.5,5.55-4.33,9.11-9.79,9.11-6.89,0-10.95-5.15-10.95-11.57,0-6.61,4.05-11.76,10.95-11.76,4.9,0,9,2.87,9.61,8Z" transform="translate(-43.33 -26.25)"/><path class="cls-2" d="M391.49,142.85c.25-4.15,4-5.4,7.58-5.4,3.21,0,7.08.72,7.08,4.58v8.39a8.26,8.26,0,0,0,.56,3.59h-4.49a6.6,6.6,0,0,1-.31-1.56,7.39,7.39,0,0,1-5.43,2c-3.06,0-5.49-1.53-5.49-4.83,0-3.65,2.74-4.52,5.49-4.9s5.24-.31,5.24-2.12-1.31-2.18-2.87-2.18-2.78.69-2.93,2.43Zm10.23,3.27c-.75.66-2.31.69-3.68.94s-2.62.75-2.62,2.37,1.28,2.06,2.71,2.06c3.46,0,3.59-2.74,3.59-3.71Z" transform="translate(-43.33 -26.25)"/><path class="cls-2" d="M409.17,137.89h4.21v3h.06a5.7,5.7,0,0,1,5.15-3.43,3.29,3.29,0,0,1,1,.16v4.12a8.1,8.1,0,0,0-1.59-.16c-3.24,0-4.37,2.34-4.37,5.18V154h-4.43Z" transform="translate(-43.33 -26.25)"/><path class="cls-2" d="M424.54,147c.12,2.81,1.5,4.09,4,4.09A3.65,3.65,0,0,0,432,149h3.9c-1.25,3.8-3.9,5.43-7.55,5.43-5.08,0-8.23-3.49-8.23-8.48,0-4.83,3.34-8.51,8.23-8.51,5.49,0,8.14,4.62,7.83,9.57Zm7.2-2.81c-.41-2.25-1.37-3.43-3.52-3.43a3.49,3.49,0,0,0-3.68,3.43Z" transform="translate(-43.33 -26.25)"/><path class="cls-2" d="M438.58,149.21h4.9V154h-4.9Z" transform="translate(-43.33 -26.25)"/><path class="cls-1" d="M594.4,87.48A6.72,6.72,0,1,1,601,80.76,6.46,6.46,0,0,1,594.4,87.48Zm0-12.27a5.21,5.21,0,0,0-5.17,5.55c0,3.05,2,5.55,5.17,5.55,2.87,0,5.14-2.26,5.14-5.55A5.21,5.21,0,0,0,594.4,75.21Zm-1.33,9.39h-1.22V77.17h2.82c1.8,0,2.71.63,2.71,2.14a1.9,1.9,0,0,1-1.94,2l2.08,3.27h-1.38l-1.92-3.18h-1.15Zm1.36-4.22c.92,0,1.72-.09,1.72-1.17,0-.9-.88-1-1.62-1h-1.47v2.17Z" transform="translate(-43.33 -26.25)"/></svg>